REM DIRINDEX 1\2,1\4,1\5,1\6,1\7,1\3\8,1\3\9,1\3\10
REM DIRNAME cjc113,folder01,folder02,folder03,folder04,folder05,folder06,folder07,folder08,folder09
TITLE ""
FILE "DB4500_5th_6C_30.mp3" MP3
  TRACK 01 AUDIO
    TITLE "0:"
    INDEX 01 00:00:00
  TRACK 02 AUDIO
    TITLE "8:cjc113_4480"
    INDEX 01 00:00:01
  TRACK 03 AUDIO
    TITLE "0:"
    INDEX 01 00:01:21
  TRACK 04 AUDIO
    TITLE "9:cjc113_4481"
    INDEX 01 00:01:26
  TRACK 05 AUDIO
    TITLE "0:"
    INDEX 01 00:02:55
  TRACK 06 AUDIO
    TITLE "10:cjc113_4482"
    INDEX 01 00:02:65
  TRACK 07 AUDIO
    TITLE "0:"
    INDEX 01 00:06:49
  TRACK 08 AUDIO
    TITLE "8:cjc113_4483"
    INDEX 01 00:07:07
  TRACK 09 AUDIO
    TITLE "0:"
    INDEX 01 00:08:24
  TRACK 10 AUDIO
    TITLE "9:cjc113_4484"
    INDEX 01 00:08:32
  TRACK 11 AUDIO
    TITLE "0:"
    INDEX 01 00:10:31
  TRACK 12 AUDIO
    TITLE "10:cjc113_4485"
    INDEX 01 00:10:37
  TRACK 13 AUDIO
    TITLE "0:"
    INDEX 01 00:12:69
  TRACK 14 AUDIO
    TITLE "8:cjc113_4486"
    INDEX 01 00:13:26
  TRACK 15 AUDIO
    TITLE "0:"
    INDEX 01 00:14:49
  TRACK 16 AUDIO
    TITLE "9:cjc113_4487"
    INDEX 01 00:14:56
  TRACK 17 AUDIO
    TITLE "0:"
    INDEX 01 00:16:08
  TRACK 18 AUDIO
    TITLE "10:cjc113_4488"
    INDEX 01 00:16:16
  TRACK 19 AUDIO
    TITLE "0:"
    INDEX 01 00:19:54
  TRACK 20 AUDIO
    TITLE "8:cjc113_4489"
    INDEX 01 00:20:12
  TRACK 21 AUDIO
    TITLE "0:"
    INDEX 01 00:22:72
  TRACK 22 AUDIO
    TITLE "9:cjc113_4490"
    INDEX 01 00:23:04
  TRACK 23 AUDIO
    TITLE "0:"
    INDEX 01 00:24:37
  TRACK 24 AUDIO
    TITLE "10:cjc113_4491"
    INDEX 01 00:24:49
  TRACK 25 AUDIO
    TITLE "0:"
    INDEX 01 00:27:16
  TRACK 26 AUDIO
    TITLE "10:cjc113_4492"
    INDEX 01 00:27:57
  TRACK 27 AUDIO
    TITLE "0:"
    INDEX 01 00:31:31
  TRACK 28 AUDIO
    TITLE "8:cjc113_4493"
    INDEX 01 00:32:05
  TRACK 29 AUDIO
    TITLE "0:"
    INDEX 01 00:33:26
  TRACK 30 AUDIO
    TITLE "9:cjc113_4494"
    INDEX 01 00:33:40
  TRACK 31 AUDIO
    TITLE "0:"
    INDEX 01 00:35:17
  TRACK 32 AUDIO
    TITLE "10:cjc113_4495"
    INDEX 01 00:35:33
  TRACK 33 AUDIO
    TITLE "0:"
    INDEX 01 00:39:11
  TRACK 34 AUDIO
    TITLE "8:cjc113_4496"
    INDEX 01 00:39:51
  TRACK 35 AUDIO
    TITLE "0:"
    INDEX 01 00:40:48
  TRACK 36 AUDIO
    TITLE "9:cjc113_4497"
    INDEX 01 00:40:68
  TRACK 37 AUDIO
    TITLE "0:"
    INDEX 01 00:41:73
  TRACK 38 AUDIO
    TITLE "10:cjc113_4498"
    INDEX 01 00:42:18
  TRACK 39 AUDIO
    TITLE "0:"
    INDEX 01 00:45:00
  TRACK 40 AUDIO
    TITLE "8:cjc113_4499"
    INDEX 01 00:45:43
  TRACK 41 AUDIO
    TITLE "0:"
    INDEX 01 00:46:64
  TRACK 42 AUDIO
    TITLE "9:cjc113_4500"
    INDEX 01 00:47:03
  TRACK 43 AUDIO
    TITLE "0:"
    INDEX 01 00:48:16
  TRACK 44 AUDIO
    TITLE "10:cjc113_4501"
    INDEX 01 00:48:34
  TRACK 45 AUDIO
    TITLE "0:"
    INDEX 01 00:51:73
  TRACK 46 AUDIO
    TITLE "8:cjc113_4502"
    INDEX 01 00:52:39
  TRACK 47 AUDIO
    TITLE "0:"
    INDEX 01 00:53:45
  TRACK 48 AUDIO
    TITLE "9:cjc113_4503"
    INDEX 01 00:53:62
  TRACK 49 AUDIO
    TITLE "0:"
    INDEX 01 00:55:04
  TRACK 50 AUDIO
    TITLE "10:cjc113_4504"
    INDEX 01 00:55:22
  TRACK 51 AUDIO
    TITLE "0:"
    INDEX 01 00:59:10
  TRACK 52 AUDIO
    TITLE "8:cjc113_4505"
    INDEX 01 00:59:51
  TRACK 53 AUDIO
    TITLE "0:"
    INDEX 01 01:00:64
  TRACK 54 AUDIO
    TITLE "9:cjc113_4506"
    INDEX 01 01:01:05
  TRACK 55 AUDIO
    TITLE "0:"
    INDEX 01 01:02:28
  TRACK 56 AUDIO
    TITLE "10:cjc113_4507"
    INDEX 01 01:02:44
  TRACK 57 AUDIO
    TITLE "0:"
    INDEX 01 01:05:34
  TRACK 58 AUDIO
    TITLE "8:cjc113_4508"
    INDEX 01 01:06:00
  TRACK 59 AUDIO
    TITLE "0:"
    INDEX 01 01:07:15
  TRACK 60 AUDIO
    TITLE "9:cjc113_4509"
    INDEX 01 01:07:27
  TRACK 61 AUDIO
    TITLE "0:"
    INDEX 01 01:08:52
  TRACK 62 AUDIO
    TITLE "10:cjc113_4510"
    INDEX 01 01:08:74
  TRACK 63 AUDIO
    TITLE "0:"
    INDEX 01 01:12:40
  TRACK 64 AUDIO
    TITLE "8:cjc113_4511"
    INDEX 01 01:13:04
  TRACK 65 AUDIO
    TITLE "0:"
    INDEX 01 01:14:19
  TRACK 66 AUDIO
    TITLE "9:cjc113_4512"
    INDEX 01 01:14:35
  TRACK 67 AUDIO
    TITLE "0:"
    INDEX 01 01:15:60
  TRACK 68 AUDIO
    TITLE "10:cjc113_4513"
    INDEX 01 01:16:05
  TRACK 69 AUDIO
    TITLE "0:"
    INDEX 01 01:19:54
  TRACK 70 AUDIO
    TITLE "8:cjc113_4514"
    INDEX 01 01:20:22
  TRACK 71 AUDIO
    TITLE "0:"
    INDEX 01 01:21:33
  TRACK 72 AUDIO
    TITLE "9:cjc113_4515"
    INDEX 01 01:21:49
  TRACK 73 AUDIO
    TITLE "0:"
    INDEX 01 01:23:07
  TRACK 74 AUDIO
    TITLE "10:cjc113_4516"
    INDEX 01 01:23:24
  TRACK 75 AUDIO
    TITLE "0:"
    INDEX 01 01:26:34
